<svg xmlns="http://www.w3.org/2000/svg" xmlns:xlink="http://www.w3.org/1999/xlink" id="Layer_1" x="0px" y="0px" viewBox="0 0 800 245" style="enable-background:new 0 0 800 245;" xml:space="preserve"><g>	<path d="M42.4,11.3C26.1,18.2,8.1,37.5,2.5,61.7c-7.2,30.7,22.7,43.7,25.1,39.4c2.9-5-5.4-6.7-7-22.6C18.4,57.9,27.9,35,40,24.9  c2.2-1.9,2.1,0.7,2.1,5.6c0,8.6-0.5,86.1-0.5,102.2c0,21.9-0.9,28.8-2.5,35.6c-1.6,6.9-4.3,11.6-2.3,13.4c2.2,2,11.8-2.8,17.3-10.5  c6.6-9.3,9-20.4,9.4-32.4C64,124.2,64,101.1,64,87.9c0-12.1,0.2-47.5-0.2-68.7C63.7,14,49.2,8.5,42.4,11.3"></path>	<path d="M622,113.7c-0.5,11.4-3,20.3-6.2,26.5c-6,12.1-18.6,15.9-23.9-1.5c-2.9-9.5-3-25.4-1-38.7c2.1-13.5,8.1-23.7,17.9-22.8  C618.5,78.1,623.1,90.6,622,113.7L622,113.7z M458.6,184.2c-0.1,18.9-3.1,35.5-9.5,40.3c-9,6.8-21.2,1.7-18.7-12.1  c2.2-12.2,12.8-24.7,28.2-39.9C458.7,172.5,458.7,176,458.6,184.2L458.6,184.2z M456.2,113.6c-0.6,10.4-3.2,20.8-6.2,26.6  c-6,12.1-18.7,15.9-23.9-1.5c-3.6-11.9-2.7-27.4-1-37.1c2.3-12.6,7.9-24.3,17.9-24.3C452.7,77.2,457.5,87.9,456.2,113.6  L456.2,113.6z M361.5,113.4c-0.6,11-2.7,20.1-6.2,26.8c-6.2,12.1-18.5,15.9-23.9-1.5c-3.9-12.6-2.6-29.7-1-38.9  c2.4-13.7,8.5-23.5,17.9-22.5C358.1,78.2,362.8,90.6,361.5,113.4L361.5,113.4z M795.2,126.2c-2.4,0-3.4,2.4-4.3,6.5  c-3.1,14.3-6.4,17.5-10.6,17.5c-4.7,0-8.9-7.1-10-21.2c-0.9-11.1-0.7-31.6,0.4-52c0.2-4.2-0.9-8.3-12.2-12.4  c-4.8-1.8-11.9-4.3-15.4,4.1c-9.9,23.9-13.8,42.8-14.7,50.5c0,0.4-0.5,0.5-0.6-0.5c-0.6-6.2-1.9-17.4-2-40.9c0-4.6-1-8.5-6.1-11.7  c-3.3-2.1-13.3-5.7-16.9-1.4c-3.1,3.6-6.7,13.2-10.5,24.6c-3,9.3-5.2,15.5-5.2,15.5s0-25,0.1-34.5c0-3.6-2.4-4.8-3.2-5  c-3.3-1-9.9-2.6-12.7-2.6c-3.4,0-4.3,1.9-4.3,4.7c0,0.4-0.5,32.9-0.5,55.7c0,1,0,2.1,0,3.2c-1.9,10.5-8.1,24.7-14.8,24.7  c-6.7,0-9.9-5.9-9.9-33.1c0-15.8,0.5-22.7,0.7-34.2c0.1-6.6,0.4-11.7,0.4-12.8c0-3.5-6.1-5.3-9-6c-2.8-0.7-5.3-0.9-7.3-0.8  c-2.7,0.2-4.7,1.9-4.7,4.4c0,1.3,0,3.8,0,3.8c-3.5-5.5-9.2-9.4-13-10.5c-10.2-3-20.8-0.3-28.7,10.8c-6.4,8.9-10.2,19-11.7,33.4  c-1.1,10.6-0.7,21.3,1.2,30.4c-2.4,10.2-6.8,14.4-11.6,14.4c-7,0-12-11.4-11.5-31.1c0.4-13,3-22.1,5.8-35.2  c1.2-5.6,0.2-8.6-2.2-11.4c-2.3-2.6-7.1-3.9-14-2.3c-4.9,1.2-12,2.4-18.4,3.4c0,0,0.4-1.6,0.7-4.3c1.7-14.4-13.9-13.2-18.9-8.6  c-3,2.7-5,6-5.8,11.8c-1.2,9.2,6.3,13.6,6.3,13.6c-2.5,11.3-8.5,26-14.8,36.7c-3.3,5.7-5.9,9.9-9.2,14.4c0-1.7,0-3.4,0-5  c-0.1-23.7,0.2-42.4,0.4-49.1c0.1-6.6,0.4-11.5,0.4-12.7c0-2.6-1.5-3.6-4.7-4.8c-2.8-1.1-6-1.8-9.4-2.1c-4.3-0.3-6.9,1.9-6.8,4.6  c0,0.5,0,3.6,0,3.6c-3.5-5.5-9.2-9.4-13-10.5c-10.2-3-20.8-0.3-28.7,10.8c-6.4,8.9-10.5,21.4-11.7,33.3  c-1.1,11.1-0.9,20.6,0.6,28.6c-1.6,8-6.3,16.3-11.5,16.3c-6.7,0-10.5-5.9-10.5-33.1c0-15.8,0.5-22.7,0.7-34.2  c0.1-6.6,0.4-11.7,0.4-12.8c0-3.5-6.1-5.3-9-6c-3-0.7-5.5-0.9-7.5-0.8c-2.6,0.2-4.4,2.5-4.4,4.2v4c-3.5-5.5-9.2-9.4-13-10.5  c-10.2-3-20.7-0.3-28.7,10.8c-5.3,7.3-9.5,15.3-11.7,33.1c-0.6,5.2-0.9,10-0.9,14.5c-2.1,12.8-11.3,27.6-18.9,27.6  c-4.4,0-8.6-8.6-8.6-26.9c0-24.4,1.5-59.1,1.8-62.4c0,0,9.6-0.2,11.4-0.2c4.8-0.1,9.1,0.1,15.4-0.3c3.2-0.2,6.3-11.6,3-13  c-1.5-0.6-12-1.2-16.2-1.3c-3.5-0.1-13.3-0.8-13.3-0.8s0.9-23,1.1-25.5c0.2-2-2.5-3.1-4-3.7c-3.7-1.5-6.9-2.3-10.8-3.1  c-5.4-1.1-7.8,0-8.3,4.5c-0.7,6.9-1.1,27-1.1,27c-3.9,0-17.4-0.8-21.3-0.8c-3.7,0-7.6,15.7-2.5,15.9c5.8,0.2,16,0.4,22.7,0.6  c0,0-0.3,35.3-0.3,46.2c0,1.2,0,2.3,0,3.4c-3.7,19.3-16.7,29.7-16.7,29.7c2.8-12.8-2.9-22.3-13.2-30.4c-3.8-3-11.3-8.6-19.7-14.8  c0,0,4.9-4.8,9.2-14.4c3-6.8,3.2-14.6-4.3-16.3c-12.4-2.8-22.6,6.2-25.6,15.9c-2.4,7.5-1.1,13.1,3.5,18.9c0.3,0.4,0.7,0.9,1.1,1.3  c-2.8,5.4-6.6,12.6-9.9,18.2c-9,15.6-15.8,27.9-21,27.9c-4.1,0-4.1-12.5-4.1-24.2c0-10.1,0.7-25.3,1.3-41c0.2-5.2-2.4-8.2-6.8-10.9  c-2.6-1.6-8.3-4.8-11.6-4.8c-4.9,0-19,0.7-32.4,39.3c-1.7,4.9-5,13.8-5,13.8l0.3-46.5c0-1.1-0.6-2.1-1.9-2.9  c-2.3-1.2-8.3-3.7-13.6-3.7c-2.5,0-3.8,1.2-3.8,3.5L82.9,139c0,5.5,0.1,12,0.7,14.8c0.5,2.8,1.4,5.1,2.5,6.5  c1.1,1.4,2.4,2.4,4.4,2.8c1.9,0.4,12.5,1.8,13.1-2.3c0.7-4.9,0.7-10.1,6.3-29.7c8.7-30.5,20-45.4,25.3-50.6c0.9-0.9,2-1,1.9,0.5  c-0.2,6.7-1,23.4-1.6,37.6c-1.4,38,5.5,45,15.3,45c7.6,0,18.2-7.5,29.6-26.5c7.1-11.8,14-23.4,19-31.8c3.5,3.2,7.3,6.6,11.2,10.3  c9,8.6,12,16.7,10,24.4c-1.5,5.9-7.2,12-17.2,6.1c-2.9-1.7-4.2-3.1-7.1-5c-1.6-1-4-1.4-5.5-0.3c-3.8,2.8-5.9,6.5-7.2,10.9  c-1.2,4.4,3.2,6.7,7.7,8.7c3.9,1.7,12.3,3.3,17.6,3.5c20.8,0.7,37.4-10,49-37.7c2.1,23.9,10.9,37.4,26.3,37.4  c10.3,0,20.5-13.3,25-26.3c1.3,5.3,3.2,9.9,5.7,13.9c11.8,18.7,34.8,14.7,46.3-1.2c3.6-4.9,4.1-6.7,4.1-6.7  c1.7,15,13.8,20.3,20.7,20.3c7.8,0,15.8-3.7,21.4-16.3c0.7,1.4,1.4,2.7,2.2,3.9c11.8,18.7,34.8,14.7,46.3-1.2c0.5-0.7,1-1.4,1.4-2  l0.3,9.9c0,0-6.6,6-10.6,9.7c-17.8,16.3-31.3,28.7-32.3,43.1c-1.3,18.4,13.6,25.2,24.9,26.1c11.9,0.9,22.2-5.7,28.5-14.9  c5.5-8.1,9.2-25.7,8.9-43c-0.1-6.9-0.3-15.7-0.4-25.2c6.2-7.2,13.3-16.4,19.7-27.1c7.1-11.7,14.6-27.4,18.5-39.6  c0,0,6.6,0.1,13.6-0.4c2.2-0.1,2.9,0.3,2.5,2c-0.5,2-8.9,34.2-1.2,55.7c5.2,14.7,17,19.4,24,19.4c8.2,0,16-6.2,20.2-15.3  c0.5,1,1,2,1.6,2.9c11.8,18.7,34.7,14.7,46.3-1.2c2.6-3.6,4.1-6.7,4.1-6.7c2.5,15.5,14.6,20.3,21.5,20.3c7.2,0,14.1-3,19.6-16.1  c0.2,5.8,0.6,10.5,1.2,12c0.4,0.9,2.4,2.1,3.9,2.6c6.6,2.4,13.3,1.3,15.8,0.8c1.7-0.3,3.1-1.7,3.3-5.3c0.5-9.4,0.2-25.1,3-36.9  c4.8-19.7,9.2-27.3,11.3-31.1c1.2-2.1,2.5-2.5,2.6-0.2c0.1,4.5,0.3,17.8,2.2,35.7c1.4,13.1,3.2,20.9,4.6,23.4c4,7,8.9,7.4,12.9,7.4  c2.5,0,7.9-0.7,7.4-5.2c-0.2-2.2,0.2-15.7,4.9-35c3.1-12.6,8.2-24.1,10-28.3c0.7-1.5,1-0.3,1-0.1c-0.4,8.7-1.3,37.2,2.3,52.8  c4.8,21.1,18.7,23.5,23.6,23.5c10.4,0,18.8-7.9,21.7-28.6C799.3,130.1,798.2,126.2,795.2,126.2L795.2,126.2z"></path></g></svg>