<svg xmlns="http://www.w3.org/2000/svg" xmlns:xlink="http://www.w3.org/1999/xlink" id="Layer_1" x="0px" y="0px" viewBox="0 0 800 291" style="enable-background:new 0 0 800 291;" xml:space="preserve"><g>	<path d="M775.1,176.2l22.2,14.8c-7.2,10.6-24.4,28.8-54.2,28.8c-37,0-64.5-28.6-64.5-65c0-38.7,27.8-65,61.4-65  c33.8,0,50.3,26.9,55.7,41.4l2.9,7.4l-87,36c6.6,13,16.9,19.7,31.5,19.7C757.7,194.2,767.8,187,775.1,176.2L775.1,176.2z   M706.8,152.7l58.1-24.1c-3.2-8.1-12.8-13.8-24.1-13.8C726.3,114.8,706.2,127.6,706.8,152.7L706.8,152.7z"></path>	<path d="M636.6,23.5h28v190.4h-28V23.5L636.6,23.5z"></path>	<path d="M592.4,94.8h27.1v115.6c0,48-28.3,67.7-61.8,67.7c-31.5,0-50.5-21.2-57.6-38.4l24.8-10.3c4.5,10.6,15.3,23.2,32.8,23.2  c21.5,0,34.7-13.3,34.7-38.3V205h-1c-6.4,7.8-18.7,14.8-34.3,14.8c-32.5,0-62.3-28.3-62.3-64.8c0-36.7,29.8-65.3,62.3-65.3  c15.5,0,27.8,6.9,34.3,14.5h1V94.8L592.4,94.8z M594.3,155c0-23-15.3-39.7-34.7-39.7c-19.7,0-36.2,16.7-36.2,39.7  c0,22.7,16.5,39.1,36.2,39.1C579,194.2,594.3,177.6,594.3,155L594.3,155z"></path>	<path d="M341,154.5c0,37.5-29.2,65-65,65s-65-27.6-65-65c0-37.7,29.2-65.1,65-65.1S341,116.8,341,154.5L341,154.5z M312.5,154.5  c0-23.4-16.9-39.4-36.6-39.4c-19.7,0-36.6,16.1-36.6,39.4c0,23.2,16.9,39.4,36.6,39.4C295.6,193.9,312.5,177.6,312.5,154.5  L312.5,154.5z"></path>	<path d="M483,154.8c0,37.5-29.2,65-65,65s-65-27.5-65-65c0-37.7,29.2-65,65-65S483,117,483,154.8L483,154.8z M454.5,154.8  c0-23.4-16.9-39.4-36.6-39.4s-36.6,16.1-36.6,39.4c0,23.2,16.9,39.4,36.6,39.4C437.6,194.2,454.5,177.8,454.5,154.8L454.5,154.8z"></path>	<path d="M104,191.3c-40.8,0-72.7-32.9-72.7-73.7S63.3,43.9,104,43.9c22,0,38.1,8.7,49.9,19.8l19.6-19.6  C157,28.2,134.9,16.2,104,16.2C48.2,16.2,1.2,61.7,1.2,117.6S48.2,219,104,219c30.2,0,53-9.9,70.8-28.4  c18.3-18.3,23.9-44,23.9-64.8c0-6.5-0.8-13.2-1.7-18.2H104v27.1h66.3c-1.9,16.9-7.3,28.5-15.2,36.4  C145.6,180.7,130.5,191.3,104,191.3L104,191.3L104,191.3z"></path></g></svg>