<svg xmlns="http://www.w3.org/2000/svg" xmlns:xlink="http://www.w3.org/1999/xlink" id="Layer_1" x="0px" y="0px" viewBox="0 0 800 180" style="enable-background:new 0 0 800 180;" xml:space="preserve"><g id="_Group_">	<path id="_Path_" d="M62.7,36c-9.4,0-12.2,4.1-12.2,13.3v15.2h25.1l-2.4,24.8H50.5v74.9H20.3V89.3H0V64.7h20.3V49.9  c0-25.1,10.1-38.3,38.1-38.3c5.8,0,11.8,0.4,17.6,1.1V36"></path>	<path id="_Compound_Path_" d="M77.7,111.2c0-27.8,13.1-48.8,40.9-48.8c15,0,24.2,7.7,28.7,17.4V64.7h28.9v99.6h-29.1v-15  c-4.1,9.6-13.7,17.1-28.7,17.1c-27.6,0-40.9-20.8-40.9-48.8 M107.9,118c0,14.8,5.4,24.8,19.5,24.8c12.4,0,18.6-9,18.6-23.3v-10.1  c0-14.3-6.4-23.3-18.6-23.3c-14.1,0-19.5,9.8-19.5,24.8C107.9,110.9,107.9,118,107.9,118z"></path>	<path id="_Path_2" d="M238.8,62.5c11.6,0,22.9,2.4,28.9,6.8L261,90.6c-6.2-3-13.1-4.5-20.1-4.5c-16.3,0-23.5,9.4-23.5,25.5v5.8  c0,16.1,7.1,25.5,23.5,25.5c6.9,0,13.9-1.7,20.1-4.7l6.8,21.4c-6,4.1-17.1,6.8-28.9,6.8c-35.5,0-51.4-18.9-51.4-49.5v-4.7  C187.4,81.6,203.4,62.5,238.8,62.5"></path>	<path id="_Compound_Path_2" d="M271.7,118.2v-8.8c0-28.3,16.1-46.9,49-46.9c31,0,44.7,18.8,44.7,46.5v15.9h-63.4  c0.6,13.7,6.8,19.7,23.5,19.7c10.9,0,21.8-2.1,32.1-6l5.4,20.6c-7.9,4.1-24.2,7.3-38.6,7.3C285.9,166.4,271.7,147.4,271.7,118.2   M301.9,105h36.4v-2.4c0-10.9-4.3-19.5-17.6-19.5C307.1,83.1,301.9,91.7,301.9,105"></path>	<path id="_Compound_Path_3" d="M477.1,117.6c0,27.8-13.3,48.8-41.1,48.8c-15,0-25.5-7.5-29.6-17.1v15h-28.5V14.6l30.2-2.6v66.6  c4.3-8.8,14.1-15.9,28.1-15.9c27.6,0,41.1,20.8,41.1,48.8 M446.9,110.7c0-14.1-5.4-24.6-19.9-24.6c-12.4,0-18.9,8.8-18.9,23.1v10.5  c0,14.3,6.8,23.1,18.9,23.1c14.4,0,19.9-10.5,19.9-24.6C446.9,118.2,446.9,110.7,446.9,110.7z"></path>	<path id="_Compound_Path_4" d="M487.1,116.9v-5.1c0-28.7,16.3-49.3,49.5-49.3s49.5,20.6,49.5,49.3v5.1c0,28.7-16.3,49.3-49.5,49.3  S487.1,145.8,487.1,116.9 M556.1,109.7c0-13.1-5.4-23.6-19.5-23.6s-19.5,10.5-19.5,23.6v9.4c0,13.1,5.4,23.6,19.5,23.6  s19.5-10.5,19.5-23.6V109.7z"></path>	<path id="_Compound_Path_5" d="M596.4,116.9v-5.1c0-28.7,16.3-49.3,49.5-49.3c33.2,0,49.5,20.6,49.5,49.3v5.1  c0,28.7-16.3,49.3-49.5,49.3C612.8,166.2,596.4,145.8,596.4,116.9 M665.5,109.7c0-13.1-5.4-23.6-19.5-23.6s-19.5,10.5-19.5,23.6  v9.4c0,13.1,5.4,23.6,19.5,23.6s19.5-10.5,19.5-23.6V109.7z"></path>	<path id="_Path_3" d="M737,112.2l29.8-47.7h31.9l-31.1,49.3l32.5,50.5h-32.1l-31-48.8v48.8h-30V14.6l30-2.8"></path></g></svg>